<?xml version="1.0" encoding="UTF-8"?>
<svg xmlns="http://www.w3.org/2000/svg" version="1.1" xmlns:xlink="http://www.w3.org/1999/xlink" viewBox="0 0 1190.6 841.9">
  <defs>
    <style>
      .cls-1, .cls-2 {
        fill: none;
      }

      .cls-2 {
        stroke: #ce2729;
        stroke-width: 20px;
      }

      .cls-3 {
        clip-path: url(#clippath);
      }
    </style>
    <clipPath id="clippath">
      <rect class="cls-1" x="226.7" y="74.4" width="737.2" height="693.1"/>
    </clipPath>
  </defs>
  <!-- Generator: Adobe Illustrator 28.7.1, SVG Export Plug-In . SVG Version: 1.2.0 Build 142)  -->
  <g>
    <g id="Livello_3">
      <g class="cls-3">
        <path class="cls-2" d="M272.1,282.8s83.5-4.3,105.9,39.6c26.4,51.8,24.1,90.4,24.1,90.4,0,0,0,38.7,43.1,60.3,43.1,21.5,235.1,99,248,106.8,12.9,7.8,29.3,15.5,24.1,30.1-5.2,14.6-20.7,37-37.9,25-17.2-12.1-30.8-22.4-45.6-16.4-14.8,6-19.8,37-26.3,51.7-6.5,14.6-10.8,43.9-12.5,50.8-1.7,6.9,6,27.6,12.5,32.7,6.5,5.2,19.4,6.9,45.2-8.6,25.8-15.5,266.1-155.8,285-167,18.9-11.2,24.1-31,0-31s-60.3-11.2-83.5,6.9c-23.2,18.1-35.3,28.4-49.1,18.9-13.8-9.5-12.9-19.8-13.8-33.6-.9-13.8.9-27.5-12.9-39.6-13.8-12-23.2-7.8-31.9-3.4-8.6,4.3-25.8,10.3-32.7,5.2-6.9-5.2-6.9-18.1-6.9-30.1s-7.7-21.5-18.9-21.5-17.2,9.5-23.2,16.4c-6,6.9-21.5,26.7-31.9,23.2-10.3-3.4-37.4-17.2-29.3-40.5,8.1-23.2,22.5-54.2,15.3-72.3-7.2-18.1-17.9-57.7-23.9-66.3-6-8.6-6.9-20.7-35.3-21.5-28.4-.9-125.7-6-139.5-8.6-13.8-2.6-31-9.5-31.9-28.4-.9-19,15.5-44.8,43.1-54.2,27.6-9.5,73.2-32.7,81.8-53.4,8.6-20.7,7.7-45.6-10.3-56.8-18.1-11.2-37,12-52.5,24.1-15.5,12-101.6,77.5-124.8,93.8-23.2,16.4-41.3,6.9-56,5.2-14.6-1.7-32.7-4.3-32.7,15.5s-1.2,35.3,5.2,46.1c9.5,15.9,30.1,10.8,30.1,10.8Z"/>
      </g>
    </g>
  </g>
</svg>